<svg width="137" height="138" viewBox="0 0 137 138" fill="none" xmlns="http://www.w3.org/2000/svg">
<circle cx="68.5" cy="68.5" r="67.5" transform="matrix(-1 0 0 1 137 1)" stroke="white" stroke-width="2"/>
<path d="M71.1862 1.67188C69.3954 10.85 62.8588 25.714 51.0392 3.68658M37.6078 10.4023C39.8464 10.85 44.9951 12.417 47.6813 15.1032C51.0392 18.4611 54.397 25.1768 51.0392 25.1768C48.3529 25.1768 40.9656 29.2062 37.6078 31.2209C28.4297 32.1163 10.0735 35.116 10.0735 39.9513C10.0735 45.9954 22.1617 55.3974 21.4902 60.7699C20.8186 66.1425 2.68623 94.6841 10.0735 102.071M129.948 39.9513C125.471 39.0559 114.301 36.0562 112.152 31.2209C110.003 26.3856 103.198 29.2062 100.064 31.2209C96.482 30.997 88.5127 29.4748 85.2892 25.1768C81.2598 19.8042 70.5147 30.5493 85.2892 43.9807C100.064 57.4121 76.5588 48.0101 71.1862 43.9807C65.8137 39.9513 39.6225 50.6964 47.6813 68.1572C55.7402 85.618 57.7549 89.6474 47.6813 99.0493C37.6078 108.451 70.5147 116.51 77.9019 95.0199C83.8117 77.8278 80.3643 69.948 77.9019 68.1572C81.0359 64.5755 88.1098 59.5611 91.3333 68.1572C94.5568 76.7532 98.4967 71.7389 100.064 68.1572C102.302 69.2765 106.108 73.2611 103.422 80.2454C100.064 88.9758 94.6911 105.093 114.167 82.9317C114.614 86.9611 116.45 95.0199 120.211 95.0199C124.912 95.0199 136.328 86.2895 132.299 80.2454C128.27 74.2013 125.919 69.5003 135.321 72.8582M120.211 114.495C118.42 112.928 111.883 111.406 100.064 117.853C89.5424 119.644 73.0666 125.241 91.3333 133.299" stroke="white" stroke-width="2" stroke-linecap="round"/>
</svg>
