<svg width="95.000000" height="120.000000" viewBox="0 0 95 120" fill="none" xmlns="http://www.w3.org/2000/svg" xmlns:xlink="http://www.w3.org/1999/xlink">
	<desc>
			Created with Pixso.
	</desc>
	<defs/>
	<rect id="Rectangle 64" x="0.500000" y="0.500000" width="94.000000" height="119.000000" stroke="#FFFFFF" stroke-opacity="1.000000" stroke-width="1.000000"/>
	<rect id="Rectangle 65" x="13.217407" y="17.142578" width="69.391304" height="4.285715" fill="#FFFFFF" fill-opacity="1.000000"/>
	<rect id="Rectangle 66" x="13.217407" y="28.286133" width="69.391304" height="4.285715" fill="#FFFFFF" fill-opacity="1.000000"/>
	<rect id="Rectangle 67" x="13.217407" y="39.427734" width="69.391304" height="4.285715" fill="#FFFFFF" fill-opacity="1.000000"/>
	<rect id="Rectangle 68" x="13.217407" y="50.572266" width="69.391304" height="4.285715" fill="#FFFFFF" fill-opacity="1.000000"/>
	<rect id="Rectangle 69" x="13.217407" y="61.713867" width="69.391304" height="4.285715" fill="#FFFFFF" fill-opacity="1.000000"/>
	<rect id="Rectangle 70" x="13.217407" y="72.857422" width="69.391304" height="4.285715" fill="#FFFFFF" fill-opacity="1.000000"/>
	<rect id="Rectangle 71" x="13.217407" y="84.000000" width="69.391304" height="4.285715" fill="#FFFFFF" fill-opacity="1.000000"/>
	<rect id="Rectangle 72" x="13.217407" y="95.142578" width="69.391304" height="4.285715" fill="#FFFFFF" fill-opacity="1.000000"/>
	<path id="Vector 9" d="M32.7263 49.8083C40.66 48.2856 57.9554 43.1841 63.6676 34.9609C68.6262 39.9102 81.1613 49.8083 91.6338 49.8083C89.8487 69.4148 81.7564 108.627 63.6676 108.627C46.0549 109.998 35.7014 69.9858 32.7263 49.8083Z" fill="#FFFFFF" fill-opacity="1.000000" fill-rule="evenodd"/>
	<path id="Vector 10" d="M51.3036 67.9673L62.4558 85.1101L77.7384 60.6816" stroke="#464648" stroke-opacity="1.000000" stroke-width="2.000000"/>
</svg>
