<svg width="87.000000" height="129.023926" viewBox="0 0 87 129.024" fill="none" xmlns="http://www.w3.org/2000/svg" xmlns:xlink="http://www.w3.org/1999/xlink">
	<desc>
			Created with Pixso.
	</desc>
	<defs/>
	<path id="Vector 5" d="M68.6964 53.3516L68.6964 61.3411C45.3821 97.2329 24.375 75.2717 16.7857 59.8044L16.7857 35.5283C24.1726 37.782 40.8286 38.2327 48.3571 22.0073C52.3036 32.6604 61.8964 53.8433 68.6964 53.3516C75.4964 52.8599 78.4107 48.0251 79.0179 45.6692M35.9107 1.72607C26.3988 5.1062 7.55714 16.2302 8.28572 33.6846C9.19643 55.5024 8.28572 64.4141 8.28572 73.0181C8.28572 79.9016 24.6786 80.803 32.875 80.3933C35.3036 87.2561 42.65 96.8643 52.6071 80.3933L65.0536 80.3933C67.6845 80.2908 73.7964 77.689 77.1964 68.1016C80.5964 58.5139 79.8274 49.1519 79.0179 45.6692C78.9167 28.563 70.1536 -4.17407 35.9107 1.72607ZM32.875 80.3933L27.1071 87.7683L12.2321 87.7683C8.4881 88.7927 1 93.4226 1 103.748C1 114.073 1 124.234 1 128.024L86 128.024L86 102.211C84.5833 96.1677 81.5 87.7683 68.6964 87.7683L58.0714 87.7683L52.6071 80.3933M37.7321 65.6431C38.5417 67.5894 41.8 70.314 48.3571 65.6431M50.4821 53.3516C51.6964 47.2053 56.3714 48.189 58.0714 53.3516M34.3929 53.3516C34.0893 50.6882 29.8393 43.5178 27.1071 53.3516" stroke="#FFFFFF" stroke-opacity="1.000000" stroke-width="2.000000"/>
	<path id="Vector 6" d="M43.637 104.895C41.9358 101.483 30.6117 95.9871 30.5 104.024C30.3726 113.191 38 114.024 43.637 120.023C50 114.024 56.5 114.024 57 104.895C57.4838 96.0618 45.3382 100.447 43.637 104.895Z" fill="#FFFFFF" fill-opacity="1.000000" fill-rule="evenodd"/>
</svg>
