<svg width="108.283508" height="124.009766" viewBox="0 0 108.284 124.01" fill="none" xmlns="http://www.w3.org/2000/svg" xmlns:xlink="http://www.w3.org/1999/xlink">
	<desc>
			Created with Pixso.
	</desc>
	<defs/>
	<ellipse id="Ellipse 11" cx="56.409058" cy="37.398682" rx="35.136364" ry="36.398647" stroke="#FFFFFF" stroke-opacity="1.000000" stroke-width="2.000000"/>
	<path id="₽" d="M58.9254 41.926L42.7576 41.926L42.7576 37.4702L58.8049 37.4702C60.1007 37.4702 61.1655 37.2708 61.9993 36.8713C62.8431 36.4719 63.4659 35.917 63.8677 35.2061C64.2795 34.4949 64.4805 33.6624 64.4704 32.7078C64.4805 31.7729 64.2795 30.9353 63.8677 30.1951C63.4659 29.4451 62.8531 28.856 62.0294 28.4275C61.2158 27.9893 60.1811 27.77 58.9254 27.77L52.8681 27.77L52.8681 53.1895L47.293 53.1895L47.293 23.2705L58.9254 23.2705C61.3162 23.2705 63.3403 23.6892 64.9978 24.5269C66.6553 25.3547 67.9109 26.4795 68.7648 27.9016C69.6287 29.3137 70.0606 30.9011 70.0606 32.6641C70.0606 34.4949 69.6237 36.1069 68.7497 37.4995C67.8757 38.8826 66.61 39.9685 64.9526 40.7573C63.2951 41.5364 61.2861 41.926 58.9254 41.926ZM59.6336 44.1465L59.6336 48.6023L42.7576 48.6023L42.7576 44.1465L59.6336 44.1465Z" fill="#FFFFFF" fill-opacity="1.000000" fill-rule="evenodd"/>
	<path id="Vector 8" d="M78.8633 99.5068L96.4734 91.8201C98.5135 90.1118 103.475 88.4377 107 95.4072L72.9723 119.236C68.8922 121.457 59.1164 125.027 52.6536 121.542C46.1907 118.057 34.2933 115.478 29.1524 114.624C26.786 114.624 21.5635 115.085 19.6051 116.93C17.6467 118.775 17.157 120.773 17.157 121.542L1 121.542L1 83.1084L17.157 83.1084L17.157 91.8201L17.157 116.93L19.6051 116.93M17.157 91.8201C22.2163 88.1475 35.0277 83.0059 45.7991 91.8201L70.2794 93.1011C73.2332 93.4299 78.0553 95.1672 78.8633 99.5068C79.1045 100.802 78.9882 102.329 78.358 104.119L54.612 104.119" stroke="#FFFFFF" stroke-opacity="1.000000" stroke-width="2.000000"/>
</svg>
