<svg width="232" height="73" viewBox="0 0 232 73" fill="none" xmlns="http://www.w3.org/2000/svg">
<path d="M1 48.8944C2.38387 56.302 7.93321 71.2817 19.0596 71.9401C32.9675 72.7632 40.7273 64.9441 43.7617 57.9481C46.8781 50.7633 50.8195 27.0833 70.7473 40.8695C90.6751 54.6558 95.4495 51.9809 100.016 45.6021C104.583 39.2234 109.15 31.9314 111.641 30.9026C113.634 30.0795 109.357 23.7008 105.829 21.2316L100.016 19.5855C104.099 24.3867 111.641 43.4954 105.829 52.7137L111.641 49.7175C113.786 46.631 114.962 40.1209 111.641 37.4871C105.621 37.3499 95.0343 36.1369 118.699 32.8447C141.646 29.6522 170.179 23.791 172.462 25.6429C174.745 27.4948 183.671 29.1409 162.498 33.8735C145.56 37.6596 139.387 36.96 138.419 36.1369C137.035 44.7105 133.935 62.4749 132.606 64.9441C130.946 68.0306 138.004 67.4133 149.628 40.8695C148.659 41.1341 146.265 41.1753 144.439 39.2234M138.419 27.289C135.097 20.4988 132.606 12.5894 129.7 7.23957C128.362 4.77539 126.171 -0.785348 129.7 1.56834C134.486 4.75998 149.628 20.293 149.628 22.968C159.384 22.5564 169.841 19.2736 178.69 25.6429C181.88 27.9395 193.843 35.3139 199.24 22.968C204.637 10.622 229.955 30.2378 231 30.2378M231 30.2378L229.955 23.9726M231 30.2378L224.727 32.8484" stroke="black" stroke-linecap="round" stroke-dasharray="4 4"/>
</svg>
