<svg width="71" height="108" viewBox="0 0 71 108" fill="none" xmlns="http://www.w3.org/2000/svg">
<path d="M25 1C51.805 9.61589 71.6655 29.189 70 60C69.5568 68.1983 61.486 71.2019 52.3744 70.7146M52.3744 70.7146C40.6182 70.086 27.1294 63.6463 26.0556 55.0556C25.2881 48.9158 49.5 55.0556 52.3744 70.7146ZM52.3744 70.7146C53.9978 73.9191 54.5663 77.285 53.3889 80.5556C46.2833 100.293 17.782 106.713 1 100M0.5 100C4.06481 103.565 6.38144 104.754 10.5 107.5M1.25 99C4.14804 99 11.0703 96.7891 12 94" stroke="#123D5D" stroke-linecap="round" stroke-dasharray="4 4"/>
</svg>
